<svg width="1024" height="1024" viewBox="0 0 1024 1024" xmlns="http://www.w3.org/2000/svg">
  <defs>
    <linearGradient id="bg" x1="0" y1="0" x2="1" y2="1">
      <stop offset="0" stop-color="#fef9e7"/>
      <stop offset="1" stop-color="#aee4f5"/>
    </linearGradient>
  </defs>
  <rect width="1024" height="1024" fill="url(#bg)"/>
  <g transform="translate(42,8) scale(4.6)">
    <ellipse cx="100" cy="150" rx="70" ry="14" fill="#f0e0b0"/>
    <path d="M40 150 Q40 100 70 95 Q75 70 95 75 Q100 55 115 75 Q135 70 140 95 Q165 100 165 150 Z" fill="#d2a679"/>
    <path d="M40 150 L35 175 L48 175 L52 150 Z" fill="#b8895f"/>
    <path d="M150 150 L155 175 L142 175 L138 150 Z" fill="#b8895f"/>
    <path d="M70 150 L65 175 L78 175 L82 150 Z" fill="#b8895f"/>
    <path d="M120 150 L125 175 L112 175 L108 150 Z" fill="#b8895f"/>
    <path d="M150 95 Q170 80 175 60 Q160 65 150 80 Z" fill="#d2a679"/>
    <circle cx="172" cy="58" r="10" fill="#d2a679"/>
    <circle cx="176" cy="55" r="2" fill="#333"/>
  </g>
</svg>
