<svg width="600" height="400" viewBox="0 0 600 400" xmlns="http://www.w3.org/2000/svg">
  <g transform="translate(120,20) scale(0.3515625)">
    <g transform="translate(42,-60) scale(4.6)">
      <ellipse cx="100" cy="150" rx="70" ry="14" fill="#f0e0b0"/>
      <path d="M35 150 Q35 100 55 92 Q60 55 78 48 Q92 43 97 68 Q100 82 103 68 Q108 43 122 48 Q140 55 145 92 Q165 100 165 150 Z" fill="#d2a679"/>
      <path d="M40 150 L35 175 L48 175 L52 150 Z" fill="#b8895f"/>
      <path d="M150 150 L155 175 L142 175 L138 150 Z" fill="#b8895f"/>
      <path d="M70 150 L65 175 L78 175 L82 150 Z" fill="#b8895f"/>
      <path d="M120 150 L125 175 L112 175 L108 150 Z" fill="#b8895f"/>
      <path d="M148 90 Q170 78 175 60 Q160 65 147 82 Z" fill="#d2a679"/>
      <circle cx="172" cy="58" r="10" fill="#d2a679"/>
      <circle cx="176" cy="55" r="2" fill="#333"/>
    </g>
    <text x="512" y="930" text-anchor="middle" font-family="Arial, sans-serif" font-size="210" font-weight="bold" fill="#2c3e50">גָּמַל</text>
  </g>
</svg>
